<svg xmlns="http://www.w3.org/2000/svg" version="1.1" xmlns:xlink="http://www.w3.org/1999/xlink" xmlns:svgjs="http://svgjs.dev/svgjs" width="128" height="128" viewBox="0 0 128 128"><g transform="matrix(0.8046875,0,0,0.8046875,12.760752631578946,14.857293290617115)"><svg viewBox="0 0 95 91" data-background-color="#ffffff" preserveAspectRatio="xMidYMid meet" height="122" width="128" xmlns="http://www.w3.org/2000/svg" xmlns:xlink="http://www.w3.org/1999/xlink"><g id="tight-bounds" transform="matrix(1,0,0,1,-0.24049999999999727,0.052621976037869445)"><svg viewBox="0 0 95.481 90.89475604792426" height="90.89475604792426" width="95.481"><g><svg viewBox="0 0 95.481 90.89475604792426" height="90.89475604792426" width="95.481"><g><svg viewBox="0 0 95.481 90.89475604792426" height="90.89475604792426" width="95.481"><g id="textblocktransform"><svg viewBox="0 0 95.481 90.89475604792426" height="90.89475604792426" width="95.481" id="textblock"><g><svg viewBox="0 0 95.481 90.89475604792426" height="90.89475604792426" width="95.481"><g><svg viewBox="0 0 95.481 90.89475604792426" height="90.89475604792426" width="95.481"><g><svg xmlns="http://www.w3.org/2000/svg" xmlns:xlink="http://www.w3.org/1999/xlink" version="1.1" x="0" y="0" viewBox="0.00015738574550781814 0 72.67584261425449 69.185" enable-background="new 0 0 72.676 69.186" xml:space="preserve" width="95.481" height="90.89475604792426" class="icon-icon-0" data-fill-palette-color="accent" id="icon-0"><path d="M62.417 31.357v-4.702H14.973v4.702H0.012c0 0-0.427 8.122 3.847 11.968 4.69 4.222 11.114 5.984 11.114 5.984v2.992h8.369c0.545 0.539 0.955 1.341 0.955 2.546 0 2.117-1.43 2.92-2.515 3.225h-6.809v11.113h47.444V58.072h-7.906c0 0-1.069-11.327 7.906-17.738 3.698-2.643 10.259-3.848 10.259-3.848v-5.129H62.417zM30.058 23.797l11.587-2.356-0.519-7.646 22.501-3.5-1.977-9.293L39.794 7.167l-2.406-6.889L25.802 2.635l1.15 10.788L30.058 23.797zM14.843 11.458l9.167 12h2.833l-5.25-10.208 2.271 0.065L19.343 1.792l-7.5 0.333 5.167 9.167L14.843 11.458zM9.176 8.792L4.51 8.958l16.167 14L9.176 8.792zM11.843 6.25L8.093 0H3.468l5.125 6.25H11.843zM15.843 23.458l-6.5-3.958-1.688 3.958H15.843z" fill="#5ebc67" data-fill-palette-color="accent"></path></svg></g></svg></g></svg></g></svg></g></svg></g></svg></g><defs></defs></svg><rect width="95.481" height="90.89475604792426" fill="none" stroke="none" visibility="hidden"></rect></g></svg></g></svg>